# xmcd CD database file
#
# Track frame offsets:
#	150
#	47739
#	84171
#	124496
#	168028
#	207400
#	239539
#	274154
#
# Disc length: 4368 seconds
#
# Revision: 0
# Processed by: cddbd v1.5.1PL0 Copyright (c) Steve Scherf et al.
# Submitted via: CDex 1.51
#
DISCID=6b110e08
DTITLE=Avalon Sound Orchestra - The River
DYEAR=2000
DGENRE=New Age
TTITLE0=Spring
TTITLE1=Cascades
TTITLE2=Wild Water
TTITLE3=Black Forest Village
TTITLE4=Estuary
TTITLE5=Stream
TTITLE6=Beneath The River
TTITLE7=Overlooking The Rhine
EXTD=YEAR: 2000
EXTT0=
EXTT1=
EXTT2=
EXTT3=
EXTT4=
EXTT5=
EXTT6=
EXTT7=
PLAYORDER=
